<svg xmlns="http://www.w3.org/2000/svg" viewBox="0 0 260.18 100.18"><defs><style>.cls-1{fill:#fefefe;}.cls-2{fill:#ebebeb;}.cls-3{fill:#d4d4d4;}.cls-4{fill:#d3d3d3;}</style></defs><title>Ресурс 7</title><g id="Слой_2" data-name="Слой 2"><g id="Слой_1-2" data-name="Слой 1"><path class="cls-1" d="M1,1Q129,1,257,.9c3.42,0,4.12.67,4.1,4.1q-.25,46.25,0,92.5c0,3-.6,3.59-3.58,3.58q-126.49-.15-253,0c-3,0-3.6-.6-3.58-3.58C1.05,65.33,1,33.17,1,1Z" transform="translate(-0.92 -0.9)"/><path class="cls-2" d="M59.15,76c-6,0-12,0-18,0C34.81,75.93,30,69,32.9,63.47c5.67-10.69,11.59-21.28,18-31.57,3.81-6.15,12.38-5.64,16.09.62Q76,47.69,84.5,63.13C87.58,68.72,83,75.94,76.63,76,70.8,76,65,76,59.15,76Z" transform="translate(-0.92 -0.9)"/><path class="cls-3" d="M198.06,52.14c-.32-14.55-.11-14.35,14.19-14.08a29.29,29.29,0,0,1,4,.08c2.3.35,4.44,1.7,4.27,4s-2.8,1.7-4.5,1.76c-2.82.1-5.65,0-8.47,0-1.58,0-2.48.63-2.54,2.33-.08,1.92.81,2.73,2.66,2.7s3.66.06,5.48,0c2.18-.06,2.87,1,2.88,3.07s-1,3-3,2.89c-1.83-.06-3.65,0-5.48,0A2.17,2.17,0,0,0,205,57.33c-.06,1.9.81,2.73,2.67,2.72,3.15,0,6.31,0,9.47,0,1.52,0,3.18,0,3.6,1.89.48,2.15-1.2,3.15-2.79,3.46a47,47,0,0,1-16.3.08c-2.25-.36-3.66-2.68-3.58-5.38S198.07,54.8,198.06,52.14Z" transform="translate(-0.92 -0.9)"/><path class="cls-4" d="M172.78,57.33c4-4.73,5.78-9.94,8.35-14.67,1.11-2,2.09-4.87,5-3.27,2.76,1.5,1.28,3.93.2,6-3,5.77-5.76,11.6-8.75,17.34-2.3,4.42-6.16,4.5-8.59.11-3.28-5.93-6.37-12-9.45-18-1-2-1.84-4.22.87-5.54,2.87-1.4,3.73.93,4.72,2.89C167.57,47.1,170,51.93,172.78,57.33Z" transform="translate(-0.92 -0.9)"/><path class="cls-4" d="M116.59,58c3.15-6,5.84-11.32,8.67-16.52.77-1.42,1.14-4.12,3.74-2.7,2.24,1.22,2.49,3.33,1.28,5.62-2.56,4.84-5.07,9.7-7.6,14.55a18.55,18.55,0,0,0-1.36,2.66c-.68,2.18-1.54,4.13-4.19,4.29s-4.5-1.6-5.35-3.79c-2.37-6.08-6.22-11.37-8.88-17.28-1-2.1-1.78-4.33.89-5.56s3.39,1.09,4.34,2.88C110.82,47.24,113.56,52.31,116.59,58Z" transform="translate(-0.92 -0.9)"/><path class="cls-4" d="M148,52.13c0,3.5,0,7,0,10.48,0,2-.81,3.21-2.9,3.24S142,64.79,142,62.78c0-6.65-.13-13.31.09-20,.08-2.31,1-5,4.07-4.57s1.64,3.16,1.77,4.9c.21,3,.05,6,.05,9Z" transform="translate(-0.92 -0.9)"/><path class="cls-1" d="M73,61c.43,4-1.67,6.38-5.6,7.34a38,38,0,0,1-16.67.37c-4.88-1-7.08-5.59-5.91-10.75a28.65,28.65,0,0,1,8-14.13c4-3.95,7.64-3.79,11.63.12C69.84,49.23,72.94,55.31,73,61Z" transform="translate(-0.92 -0.9)"/></g></g></svg>