<svg xmlns="http://www.w3.org/2000/svg" viewBox="0 0 260.17 100.17"><defs><style>.cls-1{fill:#fefefe;}.cls-2{fill:#c0001f;}.cls-3{fill:#c0011f;}</style></defs><title>Ресурс 4</title><g id="Слой_2" data-name="Слой 2"><g id="Слой_1-2" data-name="Слой 1"><path class="cls-1" d="M131,101q-63.24,0-126.5.08c-3,0-3.6-.58-3.59-3.58q.21-46.5,0-93C.9,1.53,1.5.91,4.5.92q126.5.15,253,0c3,0,3.6.58,3.59,3.58q-.21,46.5,0,93c0,3-.58,3.59-3.58,3.58Q194.26,100.9,131,101Z" transform="translate(-0.91 -0.92)"/><path class="cls-2" d="M96.74,68.77c-7.83,0-15.66.08-23.49,0-6.63-.07-9-2.39-8.12-8.87a134.72,134.72,0,0,1,5.68-23.72c1.75-5.31,6-8,11.42-8.16,10.32-.22,20.65,0,31-.15,2.67,0,2.93.87,2.43,3.23-1.53,7.13-1.43,7.08-8.81,7.17-15.94.19-13.3-2.28-17.1,13.86-1.36,5.77-.83,6.49,4.91,6.56,4.5,0,9-.1,13.5,0s7-2,8-6.46c2.56-11.36,5.47-22.64,8-34,.8-3.63,2.07-5.46,6.16-5a85.52,85.52,0,0,0,12,.05c2.66-.1,3,.88,2.44,3.28-3.41,13.89-6.6,27.83-10,41.71-1.77,7.16-6.3,10.4-14.38,10.52C112.4,68.86,104.57,68.77,96.74,68.77Z" transform="translate(-0.91 -0.92)"/><path class="cls-2" d="M166.94,27.89c-3.53,14.37-6.52,28.37-10.47,42.09-3.24,11.27-10.6,16-22.29,16H106.7c2.74-12.88,2.74-12.88,15.09-12.91,11.32,0,15.51-3.33,18.18-14.29,2.2-9,4.62-18.06,6.55-27.16.68-3.19,2-3.94,5-3.81C156.5,28.05,161.49,27.89,166.94,27.89Z" transform="translate(-0.91 -0.92)"/><path class="cls-3" d="M172.16,68.78c-9.39,0-9.39,0-7.27-9.15,2.19-9.37,4.47-18.73,6.5-28.15.6-2.75,1.66-4,4.6-3.64a53.84,53.84,0,0,0,6.48.05c9.36,0,9.34,0,7.19,8.85s-4.51,17.72-6.24,26.67c-.81,4.25-2.42,6.12-6.78,5.4A26.79,26.79,0,0,0,172.16,68.78Z" transform="translate(-0.91 -0.92)"/></g></g></svg>