<svg xmlns="http://www.w3.org/2000/svg" viewBox="0 0 261.18 101.17"><defs><style>.cls-1{fill:#fefefe;}.cls-2{fill:#d7d7d7;}</style></defs><title>Ресурс 5</title><g id="Слой_2" data-name="Слой 2"><g id="Слой_1-2" data-name="Слой 1"><path class="cls-1" d="M130.85,101.33q-63.51,0-127,.08c-2.94,0-3.62-.54-3.6-3.56q.21-47,0-94C.24.9.8.24,3.82.25q127,.15,254,0c2.94,0,3.62.54,3.6,3.57q-.21,47,0,94c0,2.94-.54,3.61-3.56,3.6Q194.34,101.23,130.85,101.33Z" transform="translate(-0.24 -0.25)"/><path class="cls-2" d="M96.59,69.31c-7.33,0-14.65,0-22,0C67,69.24,64,66.08,65.5,58.79c1.43-7.13,3.23-14.21,5.26-21.2,1.79-6.18,6.16-9.2,12.58-9.24q14.23-.11,28.48,0c1.55,0,4.7-.89,4.08,1.79-.66,2.87,1,7.81-4.39,8.14a101.88,101.88,0,0,1-12,0c-4.48-.26-6.83,1.72-7.67,6-.64,3.24-1.57,6.43-2.26,9.66s.88,5.19,4.16,5.28c5.16.14,10.34.23,15.49,0,4-.21,6.18-2.73,7.08-6.58,2.65-11.28,5.47-22.52,8-33.83.87-3.88,2.24-6.13,6.82-5.53,3.6.48,7.31.16,11,.08,2.74-.06,3.49,1,2.84,3.69-3.41,14-6.63,28-10.08,42-1.58,6.37-7.35,10.13-15.32,10.24C111.91,69.39,104.25,69.31,96.59,69.31Z" transform="translate(-0.24 -0.25)"/><path class="cls-2" d="M107.07,85.89c.41-3.65,2.16-6.93,3.1-10.43.71-2.59,2.64-2,4.39-2.13,6-.48,12.28,1.3,18.1-2,3.55-2,5.84-4.65,6.79-8.66,2.45-10.32,5.17-20.57,7.52-30.9.61-2.66,1.66-3.57,4.31-3.46,4.32.18,8.66.09,13,0,2.19,0,2.89.54,2.26,2.94-3.59,13.62-6,27.53-10.34,41-2.31,7.21-10.52,15-20.09,14.27-9.28-.68-18.65-.18-28-.21A3.88,3.88,0,0,1,107.07,85.89Z" transform="translate(-0.24 -0.25)"/><path class="cls-2" d="M172.57,69.3c-9.57,0-9.53,0-7.33-9.39,2.15-9.18,4.19-18.39,6.27-27.6.61-2.7,1.77-4.36,5.05-4.06a78.88,78.88,0,0,0,11,0c3.16-.16,4.32,1.07,3.62,4.12-2.64,11.45-5.31,22.89-7.92,34.35-.47,2.07-1.84,2.56-3.68,2.55C177.23,69.29,174.9,69.3,172.57,69.3Z" transform="translate(-0.24 -0.25)"/></g></g></svg>