<svg xmlns="http://www.w3.org/2000/svg" viewBox="0 0 260.18 100.18"><defs><style>.cls-1{fill:#fefefe;}.cls-2{fill:#68b4e1;}.cls-3{fill:#2d2d2d;}.cls-4{fill:#292929;}.cls-5{fill:#282829;}.cls-6{fill:#2a2a2a;}</style></defs><title>Ресурс 6</title><g id="Слой_2" data-name="Слой 2"><g id="Слой_1-2" data-name="Слой 1"><path class="cls-1" d="M1,1Q129,1,257,.9c3.42,0,4.12.67,4.1,4.1q-.25,46.25,0,92.5c0,3-.6,3.59-3.58,3.58q-126.49-.15-253,0c-3,0-3.6-.6-3.58-3.58C1.05,65.33,1,33.17,1,1Z" transform="translate(-0.92 -0.9)"/><path class="cls-2" d="M58.83,76c-6,0-12,0-18,0s-11-7.14-8-12.52C38.94,52.24,45.44,41.2,52,30.19c2.05-3.44,11.54-3.36,13.66.16C72.4,41.61,79,53,85.43,64.42c2.17,3.91-3,11.49-7.63,11.55C71.48,76.07,65.15,76,58.83,76Z" transform="translate(-0.92 -0.9)"/><path class="cls-3" d="M198.43,51.73c-.11-15.41-.72-13.18,13.45-13.3,1.83,0,3.67-.08,5.5,0a3.39,3.39,0,0,1,3.38,3.59c0,2.35-2.1,1.5-3.46,1.51-3.34,0-6.67.11-10,0-2.31-.09-2.74,1-2.76,3s1,2.49,2.77,2.42c2-.08,4,0,6,0,2.26-.07,2.73,1.15,2.77,3.14s-1,2.52-2.75,2.46c-2-.07-4,.09-6,0-2.26-.14-2.8.93-2.82,3s.75,3,2.92,2.89c3.33-.11,6.66-.09,10,0,1.32,0,3.34-.73,3.39,1.7a3,3,0,0,1-2.6,3.21,165.62,165.62,0,0,1-17,0c-2.1-.13-2.8-2.52-2.81-4.65C198.42,57.73,198.43,54.73,198.43,51.73Z" transform="translate(-0.92 -0.9)"/><path class="cls-4" d="M116.53,58.21c3.08-6.12,5.9-11.72,8.71-17.34C126,39.3,127,37.76,129,38.73s2.82,2.74,1.69,5c-3.4,6.63-6.72,13.3-10.24,19.86a4.63,4.63,0,0,1-8-.11c-3.34-6.29-6.48-12.68-9.74-19-1.12-2.18-1.33-4.33,1.07-5.58,2.61-1.35,3.36,1,4.26,2.75C110.79,47,113.55,52.37,116.53,58.21Z" transform="translate(-0.92 -0.9)"/><path class="cls-5" d="M173.25,58.27c3-6,5.63-11.35,8.35-16.64.86-1.69,1.63-4.25,4.23-2.82,2,1.09,2.67,3,1.33,5.44-3.4,6.25-6.48,12.67-9.82,19a4.59,4.59,0,0,1-8.18.17c-3.34-6.28-6.39-12.71-9.77-19-1.32-2.44-.72-4.47,1.2-5.59,2.48-1.43,3.36,1,4.25,2.76C167.52,46.87,170.19,52.18,173.25,58.27Z" transform="translate(-0.92 -0.9)"/><path class="cls-6" d="M148,52.21c0,3.31-.15,6.63,0,9.94.15,2.56-.67,3.5-3.32,3.49s-2.82-1.43-2.8-3.47c.08-6.29,0-12.59.05-18.89,0-2.43.35-4.82,3.6-4.79,3.74,0,2.24,3,2.36,4.77C148.16,46.23,148,49.23,148,52.21Z" transform="translate(-0.92 -0.9)"/><path class="cls-1" d="M58.64,69.73C43.62,68.92,40.43,63,48,50c7-12,14.63-12,21.53.15.33.58.65,1.16.94,1.76C77.59,66.7,70.27,68.89,58.64,69.73Z" transform="translate(-0.92 -0.9)"/></g></g></svg>